<svg width="31" height="27" viewBox="0 0 31 27" fill="none" xmlns="http://www.w3.org/2000/svg">
<path d="M27.8134 7.18597C27.8331 7.46134 27.8331 7.73676 27.8331 8.01213C27.8331 16.4112 21.4404 26.0889 9.75634 26.0889C6.15671 26.0889 2.81283 25.0463 0 23.2368C0.511439 23.2957 1.00314 23.3154 1.53426 23.3154C4.50438 23.3154 7.23856 22.3123 9.42194 20.601C6.62879 20.5419 4.28805 18.7126 3.48157 16.1949C3.875 16.2538 4.26837 16.2932 4.68148 16.2932C5.2519 16.2932 5.82237 16.2145 6.35343 16.0769C3.44227 15.4867 1.25883 12.9296 1.25883 9.84143V9.76278C2.10461 10.2349 3.08819 10.5299 4.13063 10.5692C2.41933 9.42832 1.29819 7.48101 1.29819 5.27796C1.29819 4.09778 1.61285 3.01592 2.16364 2.07176C5.29119 5.92708 9.99235 8.4448 15.2639 8.72023C15.1655 8.24814 15.1065 7.75644 15.1065 7.26468C15.1065 3.76338 17.939 0.911255 21.4599 0.911255C23.2892 0.911255 24.9415 1.67838 26.1021 2.9176C27.5379 2.64223 28.9148 2.11111 30.1344 1.38334C29.6623 2.85862 28.6591 4.09784 27.3413 4.88458C28.6198 4.74696 29.8591 4.39282 30.9999 3.90112C30.1345 5.15995 29.0526 6.2811 27.8134 7.18597Z" fill="#231F1F"/>
</svg>
